<mxfile host="app.diagrams.net" modified="2023-09-26T08:49:35.783Z" agent="Mozilla/5.0 (Windows NT 10.0; Win64; x64) AppleWebKit/537.36 (KHTML, like Gecko) Chrome/117.0.0.0 Safari/537.36" etag="j_JUF-C8c4lxGrwCnvJM" version="21.8.2" type="device">
  <diagram name="Page-1" id="e7e014a7-5840-1c2e-5031-d8a46d1fe8dd">
    <mxGraphModel dx="1050" dy="534" grid="1" gridSize="10" guides="1" tooltips="1" connect="1" arrows="1" fold="1" page="1" pageScale="1" pageWidth="1169" pageHeight="826" background="none" math="0" shadow="0">
      <root>
        <mxCell id="0" />
        <mxCell id="1" parent="0" />
        <mxCell id="5HN4UKg1Xnu_4getq7X6-49" value="Pharmacy Shop Management System" style="swimlane;childLayout=stackLayout;resizeParent=1;resizeParentMax=0;startSize=20;html=1;" parent="1" vertex="1">
          <mxGeometry x="220" y="60" width="640" height="840" as="geometry" />
        </mxCell>
        <mxCell id="5HN4UKg1Xnu_4getq7X6-50" value="User" style="swimlane;startSize=20;html=1;" parent="5HN4UKg1Xnu_4getq7X6-49" vertex="1">
          <mxGeometry y="20" width="220" height="820" as="geometry" />
        </mxCell>
        <mxCell id="5HN4UKg1Xnu_4getq7X6-69" style="rounded=0;orthogonalLoop=1;jettySize=auto;html=1;exitX=0.493;exitY=0.867;exitDx=0;exitDy=0;entryX=0.5;entryY=0;entryDx=0;entryDy=0;exitPerimeter=0;" parent="5HN4UKg1Xnu_4getq7X6-50" source="5" target="5HN4UKg1Xnu_4getq7X6-56" edge="1">
          <mxGeometry relative="1" as="geometry" />
        </mxCell>
        <mxCell id="5" value="" style="ellipse;shape=startState;fillColor=#000000;strokeColor=none;" parent="5HN4UKg1Xnu_4getq7X6-50" vertex="1">
          <mxGeometry x="80" y="40" width="30" height="30" as="geometry" />
        </mxCell>
        <mxCell id="5HN4UKg1Xnu_4getq7X6-108" style="rounded=0;orthogonalLoop=1;jettySize=auto;html=1;exitX=0.5;exitY=1;exitDx=0;exitDy=0;entryX=0.5;entryY=0;entryDx=0;entryDy=0;" parent="5HN4UKg1Xnu_4getq7X6-50" source="5HN4UKg1Xnu_4getq7X6-56" target="5HN4UKg1Xnu_4getq7X6-98" edge="1">
          <mxGeometry relative="1" as="geometry" />
        </mxCell>
        <mxCell id="5HN4UKg1Xnu_4getq7X6-56" value="Enter search term &lt;br&gt;into search bar" style="rounded=1;whiteSpace=wrap;html=1;" parent="5HN4UKg1Xnu_4getq7X6-50" vertex="1">
          <mxGeometry x="30" y="110" width="130" height="40" as="geometry" />
        </mxCell>
        <mxCell id="5HN4UKg1Xnu_4getq7X6-73" value="Click Delete&amp;nbsp;&lt;br&gt;button" style="rounded=1;whiteSpace=wrap;html=1;" parent="5HN4UKg1Xnu_4getq7X6-50" vertex="1">
          <mxGeometry x="42.5" y="340" width="105" height="40" as="geometry" />
        </mxCell>
        <mxCell id="5HN4UKg1Xnu_4getq7X6-98" value="Click Search button" style="rounded=1;whiteSpace=wrap;html=1;" parent="5HN4UKg1Xnu_4getq7X6-50" vertex="1">
          <mxGeometry x="42.5" y="180" width="105" height="40" as="geometry" />
        </mxCell>
        <mxCell id="5HN4UKg1Xnu_4getq7X6-115" value="Choose Option" style="rounded=1;whiteSpace=wrap;html=1;" parent="5HN4UKg1Xnu_4getq7X6-50" vertex="1">
          <mxGeometry x="42.5" y="450" width="105" height="40" as="geometry" />
        </mxCell>
        <mxCell id="5HN4UKg1Xnu_4getq7X6-112" style="edgeStyle=orthogonalEdgeStyle;rounded=0;orthogonalLoop=1;jettySize=auto;html=1;exitX=0.5;exitY=1;exitDx=0;exitDy=0;entryX=1;entryY=0.5;entryDx=0;entryDy=0;" parent="5HN4UKg1Xnu_4getq7X6-49" source="5HN4UKg1Xnu_4getq7X6-109" target="5HN4UKg1Xnu_4getq7X6-73" edge="1">
          <mxGeometry relative="1" as="geometry" />
        </mxCell>
        <mxCell id="5HN4UKg1Xnu_4getq7X6-114" style="edgeStyle=orthogonalEdgeStyle;rounded=0;orthogonalLoop=1;jettySize=auto;html=1;exitX=0.5;exitY=1;exitDx=0;exitDy=0;entryX=0;entryY=0.5;entryDx=0;entryDy=0;" parent="5HN4UKg1Xnu_4getq7X6-49" source="5HN4UKg1Xnu_4getq7X6-73" target="5HN4UKg1Xnu_4getq7X6-113" edge="1">
          <mxGeometry relative="1" as="geometry" />
        </mxCell>
        <mxCell id="5HN4UKg1Xnu_4getq7X6-116" style="edgeStyle=orthogonalEdgeStyle;rounded=0;orthogonalLoop=1;jettySize=auto;html=1;exitX=0.5;exitY=1;exitDx=0;exitDy=0;entryX=1;entryY=0.5;entryDx=0;entryDy=0;" parent="5HN4UKg1Xnu_4getq7X6-49" source="5HN4UKg1Xnu_4getq7X6-113" target="5HN4UKg1Xnu_4getq7X6-115" edge="1">
          <mxGeometry relative="1" as="geometry" />
        </mxCell>
        <mxCell id="5HN4UKg1Xnu_4getq7X6-118" style="edgeStyle=orthogonalEdgeStyle;rounded=0;orthogonalLoop=1;jettySize=auto;html=1;exitX=0.5;exitY=1;exitDx=0;exitDy=0;entryX=0;entryY=0.5;entryDx=0;entryDy=0;" parent="5HN4UKg1Xnu_4getq7X6-49" source="5HN4UKg1Xnu_4getq7X6-115" target="5HN4UKg1Xnu_4getq7X6-59" edge="1">
          <mxGeometry relative="1" as="geometry" />
        </mxCell>
        <mxCell id="5HN4UKg1Xnu_4getq7X6-121" style="edgeStyle=orthogonalEdgeStyle;rounded=0;orthogonalLoop=1;jettySize=auto;html=1;exitX=1;exitY=0.5;exitDx=0;exitDy=0;entryX=0;entryY=0.5;entryDx=0;entryDy=0;" parent="5HN4UKg1Xnu_4getq7X6-49" source="5HN4UKg1Xnu_4getq7X6-98" target="5HN4UKg1Xnu_4getq7X6-120" edge="1">
          <mxGeometry relative="1" as="geometry" />
        </mxCell>
        <mxCell id="5HN4UKg1Xnu_4getq7X6-51" value="System" style="swimlane;startSize=20;html=1;" parent="5HN4UKg1Xnu_4getq7X6-49" vertex="1">
          <mxGeometry x="220" y="20" width="420" height="820" as="geometry" />
        </mxCell>
        <mxCell id="5HN4UKg1Xnu_4getq7X6-119" style="rounded=0;orthogonalLoop=1;jettySize=auto;html=1;exitX=0.5;exitY=1;exitDx=0;exitDy=0;" parent="5HN4UKg1Xnu_4getq7X6-51" source="5HN4UKg1Xnu_4getq7X6-59" edge="1">
          <mxGeometry relative="1" as="geometry">
            <mxPoint x="110" y="320" as="targetPoint" />
            <Array as="points">
              <mxPoint x="120" y="580" />
              <mxPoint x="-200" y="580" />
              <mxPoint x="-200" y="320" />
            </Array>
          </mxGeometry>
        </mxCell>
        <mxCell id="5HN4UKg1Xnu_4getq7X6-59" value="" style="rhombus;whiteSpace=wrap;html=1;" parent="5HN4UKg1Xnu_4getq7X6-51" vertex="1">
          <mxGeometry x="99.88" y="510" width="40" height="27" as="geometry" />
        </mxCell>
        <mxCell id="5HN4UKg1Xnu_4getq7X6-103" style="edgeStyle=orthogonalEdgeStyle;rounded=0;orthogonalLoop=1;jettySize=auto;html=1;exitX=0.5;exitY=1;exitDx=0;exitDy=0;" parent="5HN4UKg1Xnu_4getq7X6-51" source="5HN4UKg1Xnu_4getq7X6-65" target="5HN4UKg1Xnu_4getq7X6-102" edge="1">
          <mxGeometry relative="1" as="geometry" />
        </mxCell>
        <mxCell id="5HN4UKg1Xnu_4getq7X6-65" value="Delete Information" style="rounded=1;whiteSpace=wrap;html=1;" parent="5HN4UKg1Xnu_4getq7X6-51" vertex="1">
          <mxGeometry x="240" y="498.5" width="110" height="50" as="geometry" />
        </mxCell>
        <mxCell id="5HN4UKg1Xnu_4getq7X6-66" style="rounded=0;orthogonalLoop=1;jettySize=auto;html=1;exitX=1;exitY=0.5;exitDx=0;exitDy=0;entryX=0;entryY=0.5;entryDx=0;entryDy=0;edgeStyle=orthogonalEdgeStyle;" parent="5HN4UKg1Xnu_4getq7X6-51" source="5HN4UKg1Xnu_4getq7X6-59" target="5HN4UKg1Xnu_4getq7X6-65" edge="1">
          <mxGeometry relative="1" as="geometry" />
        </mxCell>
        <mxCell id="5HN4UKg1Xnu_4getq7X6-85" value="[Yes]" style="text;html=1;strokeColor=none;fillColor=none;align=center;verticalAlign=middle;whiteSpace=wrap;rounded=0;" parent="5HN4UKg1Xnu_4getq7X6-51" vertex="1">
          <mxGeometry x="148.75" y="498.5" width="76" height="30" as="geometry" />
        </mxCell>
        <mxCell id="5HN4UKg1Xnu_4getq7X6-86" value="[No]" style="text;html=1;strokeColor=none;fillColor=none;align=center;verticalAlign=middle;whiteSpace=wrap;rounded=0;" parent="5HN4UKg1Xnu_4getq7X6-51" vertex="1">
          <mxGeometry x="106" y="566" width="73" height="30" as="geometry" />
        </mxCell>
        <mxCell id="5HN4UKg1Xnu_4getq7X6-67" value="" style="ellipse;html=1;shape=endState;fillColor=#000000;strokeColor=#000000;" parent="5HN4UKg1Xnu_4getq7X6-51" vertex="1">
          <mxGeometry x="280" y="770" width="30" height="30" as="geometry" />
        </mxCell>
        <mxCell id="5HN4UKg1Xnu_4getq7X6-105" style="edgeStyle=orthogonalEdgeStyle;rounded=0;orthogonalLoop=1;jettySize=auto;html=1;exitX=0.5;exitY=1;exitDx=0;exitDy=0;entryX=0.5;entryY=0;entryDx=0;entryDy=0;" parent="5HN4UKg1Xnu_4getq7X6-51" source="5HN4UKg1Xnu_4getq7X6-102" target="5HN4UKg1Xnu_4getq7X6-104" edge="1">
          <mxGeometry relative="1" as="geometry" />
        </mxCell>
        <mxCell id="5HN4UKg1Xnu_4getq7X6-102" value="Display Deleted&lt;br&gt;successfully" style="rounded=1;whiteSpace=wrap;html=1;" parent="5HN4UKg1Xnu_4getq7X6-51" vertex="1">
          <mxGeometry x="240" y="590" width="110" height="50" as="geometry" />
        </mxCell>
        <mxCell id="5HN4UKg1Xnu_4getq7X6-106" style="edgeStyle=orthogonalEdgeStyle;rounded=0;orthogonalLoop=1;jettySize=auto;html=1;exitX=0.5;exitY=1;exitDx=0;exitDy=0;entryX=0.5;entryY=0;entryDx=0;entryDy=0;" parent="5HN4UKg1Xnu_4getq7X6-51" source="5HN4UKg1Xnu_4getq7X6-104" target="5HN4UKg1Xnu_4getq7X6-67" edge="1">
          <mxGeometry relative="1" as="geometry" />
        </mxCell>
        <mxCell id="5HN4UKg1Xnu_4getq7X6-104" value="Display again&lt;br&gt;information &amp;amp;&lt;br&gt;option page" style="rounded=1;whiteSpace=wrap;html=1;" parent="5HN4UKg1Xnu_4getq7X6-51" vertex="1">
          <mxGeometry x="240" y="680" width="110" height="50" as="geometry" />
        </mxCell>
        <mxCell id="5HN4UKg1Xnu_4getq7X6-109" value="Display related&lt;br&gt;details" style="rounded=1;whiteSpace=wrap;html=1;" parent="5HN4UKg1Xnu_4getq7X6-51" vertex="1">
          <mxGeometry x="59.75" y="260" width="105" height="40" as="geometry" />
        </mxCell>
        <mxCell id="5HN4UKg1Xnu_4getq7X6-113" value="Display Confirmation message" style="rounded=1;whiteSpace=wrap;html=1;" parent="5HN4UKg1Xnu_4getq7X6-51" vertex="1">
          <mxGeometry x="59.75" y="385" width="120.25" height="50" as="geometry" />
        </mxCell>
        <mxCell id="5HN4UKg1Xnu_4getq7X6-123" style="edgeStyle=orthogonalEdgeStyle;rounded=0;orthogonalLoop=1;jettySize=auto;html=1;exitX=1;exitY=0.5;exitDx=0;exitDy=0;entryX=0;entryY=0.5;entryDx=0;entryDy=0;" parent="5HN4UKg1Xnu_4getq7X6-51" source="5HN4UKg1Xnu_4getq7X6-120" target="5HN4UKg1Xnu_4getq7X6-122" edge="1">
          <mxGeometry relative="1" as="geometry" />
        </mxCell>
        <mxCell id="5HN4UKg1Xnu_4getq7X6-126" style="edgeStyle=orthogonalEdgeStyle;rounded=0;orthogonalLoop=1;jettySize=auto;html=1;exitX=0.5;exitY=1;exitDx=0;exitDy=0;entryX=0.5;entryY=0;entryDx=0;entryDy=0;" parent="5HN4UKg1Xnu_4getq7X6-51" source="5HN4UKg1Xnu_4getq7X6-120" target="5HN4UKg1Xnu_4getq7X6-109" edge="1">
          <mxGeometry relative="1" as="geometry" />
        </mxCell>
        <mxCell id="5HN4UKg1Xnu_4getq7X6-120" value="" style="rhombus;whiteSpace=wrap;html=1;" parent="5HN4UKg1Xnu_4getq7X6-51" vertex="1">
          <mxGeometry x="92.25000000000001" y="186.5" width="40" height="27" as="geometry" />
        </mxCell>
        <mxCell id="5HN4UKg1Xnu_4getq7X6-128" style="rounded=0;orthogonalLoop=1;jettySize=auto;html=1;exitX=0.5;exitY=0;exitDx=0;exitDy=0;" parent="5HN4UKg1Xnu_4getq7X6-51" source="5HN4UKg1Xnu_4getq7X6-122" edge="1">
          <mxGeometry relative="1" as="geometry">
            <mxPoint x="-120" y="90" as="targetPoint" />
            <Array as="points">
              <mxPoint x="323" y="90" />
            </Array>
          </mxGeometry>
        </mxCell>
        <mxCell id="5HN4UKg1Xnu_4getq7X6-122" value="Display Error&lt;br&gt;message" style="rounded=1;whiteSpace=wrap;html=1;" parent="5HN4UKg1Xnu_4getq7X6-51" vertex="1">
          <mxGeometry x="270" y="180" width="105" height="40" as="geometry" />
        </mxCell>
        <mxCell id="5HN4UKg1Xnu_4getq7X6-124" value="[not match]" style="text;html=1;strokeColor=none;fillColor=none;align=center;verticalAlign=middle;whiteSpace=wrap;rounded=0;" parent="5HN4UKg1Xnu_4getq7X6-51" vertex="1">
          <mxGeometry x="148.75" y="175" width="76" height="30" as="geometry" />
        </mxCell>
        <mxCell id="5HN4UKg1Xnu_4getq7X6-125" value="[match]" style="text;html=1;strokeColor=none;fillColor=none;align=center;verticalAlign=middle;whiteSpace=wrap;rounded=0;" parent="5HN4UKg1Xnu_4getq7X6-51" vertex="1">
          <mxGeometry x="47.879999999999995" y="213.5" width="76" height="30" as="geometry" />
        </mxCell>
      </root>
    </mxGraphModel>
  </diagram>
</mxfile>
